<?xml version="1.0" standalone="no"?>
<!DOCTYPE svg PUBLIC "-//W3C//DTD SVG 20010904//EN"
 "http://www.w3.org/TR/2001/REC-SVG-20010904/DTD/svg10.dtd">
<svg version="1.0" xmlns="http://www.w3.org/2000/svg"
 width="500.000000pt" height="500.000000pt" viewBox="0 0 500.000000 500.000000"
 preserveAspectRatio="xMidYMid meet">

<g transform="translate(0.000000,500.000000) scale(0.100000,-0.100000)"
fill="#000000" stroke="none">
<path d="M2487 4943 c-4 -3 -7 -15 -7 -25 0 -11 -7 -50 -16 -87 l-15 -68 -102
-8 c-302 -21 -585 -98 -855 -234 -227 -114 -390 -229 -571 -405 -394 -383
-647 -926 -678 -1458 -3 -63 -11 -109 -17 -111 -6 -2 -45 -10 -86 -17 -123
-21 -122 -34 5 -60 47 -10 87 -19 89 -21 1 -2 8 -66 14 -142 54 -615 340
-1157 826 -1562 154 -128 418 -280 627 -361 179 -69 436 -124 656 -140 l92 -7
16 -68 c8 -37 15 -77 15 -88 0 -20 17 -38 26 -28 3 3 12 36 19 74 8 37 17 77
20 89 4 19 14 22 97 28 302 22 578 96 843 225 458 224 817 581 1040 1035 136
277 205 536 231 859 6 78 9 88 28 92 11 3 52 12 89 20 38 7 71 16 74 19 11 10
-10 26 -35 26 -27 1 -141 25 -148 32 -2 3 -8 58 -14 124 -26 295 -98 560 -225
819 -342 700 -1027 1177 -1799 1252 -94 9 -172 18 -174 19 -3 2 -15 53 -38
162 -4 22 -15 28 -27 15z m228 -1095 l194 -923 -192 -192 c-106 -106 -195
-193 -199 -193 -5 0 -8 505 -8 1122 0 617 3 1119 6 1115 4 -3 93 -421 199
-929z m-275 872 c0 -5 -7 -43 -16 -84 l-17 -75 -74 -6 c-41 -4 -76 -5 -79 -3
-6 6 -24 115 -24 145 0 25 16 29 133 32 44 0 77 -3 77 -9z m327 -3 c6 -7 -13
-156 -21 -164 -3 -3 -39 -2 -80 2 l-75 7 -15 68 c-25 110 -31 104 85 97 55 -3
103 -8 106 -10z m-553 -14 c3 -10 8 -50 12 -89 l6 -70 -99 -17 c-54 -10 -108
-20 -120 -23 -18 -5 -22 2 -37 63 -9 37 -19 76 -22 85 -4 13 9 19 68 33 41 9
96 20 123 24 28 5 53 9 57 10 4 0 9 -7 12 -16z m656 2 c25 -4 75 -13 111 -21
l66 -15 -20 -82 c-11 -45 -21 -83 -22 -85 -1 -1 -55 8 -119 20 l-118 23 7 80
c8 91 10 98 33 91 10 -2 37 -8 62 -11z m-916 -112 c9 -38 19 -76 22 -85 3 -12
0 -18 -10 -18 -8 0 -61 -16 -117 -35 -56 -19 -103 -34 -104 -32 -1 1 -16 37
-33 80 l-31 78 27 11 c50 20 197 67 213 67 12 1 21 -17 33 -66z m1245 31 c61
-20 111 -40 111 -44 0 -8 -48 -139 -56 -151 -3 -5 -217 56 -232 67 -2 1 2 22
8 45 6 24 16 61 21 82 5 20 16 37 24 37 7 0 63 -16 124 -36z m-1497 -128 c15
-38 28 -72 28 -76 0 -3 -49 -29 -110 -57 l-109 -51 -41 75 c-23 41 -40 76 -38
78 13 14 216 105 227 102 8 -1 27 -33 43 -71z m1753 25 c58 -27 105 -55 105
-62 0 -10 -64 -135 -75 -147 -3 -3 -205 95 -214 104 -9 8 55 154 67 154 7 0
60 -22 117 -49z m-1059 -13 c-4 -22 -9 -44 -11 -48 -2 -4 -43 -10 -90 -14
-194 -15 -442 -85 -650 -186 -204 -98 -371 -217 -533 -380 -310 -312 -507
-717 -557 -1148 -7 -63 -16 -116 -18 -119 -3 -2 -24 -7 -46 -10 l-40 -6 4 39
c2 22 6 68 10 104 11 107 51 288 90 405 174 518 551 949 1048 1194 201 100
475 179 687 199 52 5 99 10 104 11 5 0 6 -18 2 -41z m329 27 c102 -8 281 -47
414 -91 762 -252 1305 -927 1393 -1729 6 -58 9 -108 5 -111 -3 -3 -23 -3 -45
1 l-39 6 -12 107 c-44 386 -197 742 -442 1037 -302 362 -728 603 -1199 680
-52 8 -114 15 -138 15 -36 0 -44 4 -52 26 -6 14 -10 36 -10 50 0 20 4 24 23
20 12 -3 58 -8 102 -11z m-1265 -157 c35 -64 38 -74 24 -83 -9 -5 -55 -35
-104 -67 l-88 -56 -50 71 -51 70 26 20 c33 27 184 117 194 117 5 0 26 -33 49
-72z m2179 45 c75 -43 161 -103 161 -112 0 -5 -22 -38 -48 -75 l-49 -66 -24
19 c-13 10 -59 40 -102 66 -43 26 -77 50 -75 54 16 34 63 119 70 129 14 16 14
16 67 -15z m-1262 -5 c-2 -13 -13 -65 -23 -115 l-18 -93 -35 -5 c-432 -65
-755 -226 -1037 -516 -257 -265 -427 -615 -469 -970 l-7 -55 -106 -22 c-59
-12 -111 -22 -116 -22 -13 0 2 145 29 275 62 297 199 585 392 825 92 114 268
279 390 365 249 177 576 304 883 344 115 15 123 14 117 -11z m499 -13 c694
-133 1272 -657 1480 -1343 50 -165 94 -442 70 -442 -6 1 -58 11 -115 23 l-105
22 -17 105 c-21 132 -41 210 -86 330 -201 542 -666 947 -1234 1074 -64 14
-132 26 -150 26 -19 0 -39 4 -45 8 -10 6 -54 187 -54 221 0 16 88 8 256 -24z
m-1647 -169 c25 -35 43 -67 42 -72 -2 -5 -42 -42 -90 -81 l-86 -73 -58 60
c-32 33 -57 64 -55 69 5 14 181 160 193 160 6 1 30 -28 54 -63z m2690 -10 c49
-41 92 -80 96 -87 5 -7 -16 -35 -53 -72 l-60 -60 -63 54 c-34 30 -75 66 -92
80 l-30 25 49 67 c26 37 51 67 55 67 5 0 48 -34 98 -74z m-1593 -63 c-3 -10
-46 -214 -96 -453 -50 -239 -92 -436 -94 -438 -2 -2 -143 52 -312 119 -352
139 -344 136 -344 118 1 -8 61 -153 134 -324 74 -170 131 -313 127 -316 -3 -4
-204 -48 -446 -99 -242 -50 -448 -93 -457 -96 -24 -7 -24 36 2 161 117 570
519 1040 1065 1248 115 44 318 93 398 96 23 1 27 -3 23 -16z m509 -8 c684
-138 1212 -686 1330 -1379 9 -54 15 -99 13 -101 -4 -4 -900 183 -906 190 -2 2
53 148 122 325 116 291 137 359 103 332 -13 -11 -630 -273 -633 -269 -1 1 -43
202 -93 447 -51 245 -95 453 -97 463 -7 23 12 22 161 -8z m-1811 -94 l59 -59
-84 -90 -83 -90 -26 18 c-14 11 -44 36 -68 57 l-43 38 86 93 c48 50 90 92 94
92 3 0 33 -27 65 -59z m3119 -47 c37 -42 67 -79 65 -84 -4 -10 -121 -110 -128
-109 -3 0 -41 41 -84 90 l-79 90 58 59 c69 70 62 71 168 -46z m-3275 -175 c37
-33 38 -36 13 -63 -11 -12 -41 -53 -68 -93 l-50 -72 -63 39 c-34 21 -67 43
-73 49 -11 11 34 83 111 178 l34 43 32 -26 c17 -15 46 -39 64 -55z m3436 -24
c24 -33 51 -72 60 -86 l17 -27 -73 -46 -73 -46 -15 22 c-8 12 -41 57 -72 99
l-57 78 67 55 67 55 18 -22 c10 -12 37 -49 61 -82z m-3626 -167 c37 -23 69
-43 71 -45 3 -2 -5 -20 -17 -41 -13 -20 -38 -68 -58 -105 -39 -77 -35 -76
-137 -26 l-57 29 26 53 c31 61 97 177 101 177 2 0 34 -19 71 -42z m3780 -77
c29 -54 52 -103 52 -108 0 -10 -128 -73 -148 -73 -7 0 -12 3 -12 8 0 4 -24 51
-54 104 l-54 98 71 44 c47 29 75 42 82 36 6 -5 35 -54 63 -109z m-2583 -226
c138 -54 252 -100 254 -101 3 -3 -44 -239 -56 -278 -4 -15 -55 32 -259 235
-140 140 -254 257 -254 262 0 4 15 1 33 -6 17 -8 145 -58 282 -112z m-1304 54
l56 -28 -42 -106 c-24 -59 -45 -109 -48 -112 -7 -6 -137 35 -151 48 -9 8 31
132 66 202 22 43 25 43 119 -4z m2787 -236 c-60 -153 -113 -282 -117 -286 -7
-7 -212 30 -275 49 -15 5 31 56 235 260 140 140 257 254 260 254 4 0 -43 -125
-103 -277z m1202 200 c46 -109 61 -154 55 -163 -5 -8 -134 -50 -152 -50 -5 0
-27 46 -49 102 -21 56 -40 105 -42 110 -3 7 132 78 149 78 4 0 22 -35 39 -77z
m-4109 -204 c35 -12 68 -25 72 -29 6 -6 -13 -96 -48 -226 -3 -8 -27 -7 -87 5
-96 20 -91 4 -51 164 15 59 32 107 38 107 6 0 40 -10 76 -21z m4193 -32 c27
-94 47 -189 41 -196 -4 -3 -42 -13 -85 -22 l-78 -16 -27 106 c-15 58 -28 112
-28 119 -2 12 112 58 150 61 6 1 18 -23 27 -52z m-4246 -231 c35 -8 65 -16 68
-19 3 -3 1 -31 -5 -63 -5 -33 -12 -85 -16 -118 l-7 -59 -80 6 c-44 3 -82 8
-86 11 -6 7 14 215 24 241 7 18 20 18 102 1z m1869 -178 c106 -106 193 -196
193 -200 0 -5 -505 -8 -1122 -8 -617 0 -1118 3 -1114 7 6 6 1794 386 1841 392
5 0 96 -86 202 -191z m2442 95 c7 -54 14 -112 17 -129 4 -30 3 -31 -42 -38
-26 -3 -66 -6 -89 -6 l-42 0 -7 78 c-4 42 -11 95 -16 117 -5 22 -8 41 -6 42 4
5 130 31 152 32 20 1 22 -7 33 -96z m-4271 -205 c3 -16 -30 -27 -138 -44 l-40
-7 0 37 0 37 87 -3 c72 -2 88 -6 91 -20z m4292 -13 c0 -41 -2 -41 -97 -19
-119 27 -109 54 20 54 l77 0 0 -35z m48 -111 c-3 -3 -421 -93 -929 -199 l-924
-194 -192 192 c-106 105 -193 195 -193 199 0 5 505 8 1122 8 617 0 1119 -3
1116 -6z m-2289 -1146 c0 -699 -4 -1115 -10 -1103 -5 11 -94 429 -199 930
l-190 910 193 193 c105 105 195 192 199 192 5 0 8 -505 7 -1122z m-2099 1081
c28 -6 50 -16 50 -23 0 -14 -62 -26 -130 -26 -36 0 -38 2 -42 36 l-4 36 38 -6
c21 -4 61 -11 88 -17z m4340 -14 l0 -35 -47 0 c-71 0 -123 11 -123 25 0 13 97
41 148 44 19 1 22 -4 22 -34z m-4207 -14 c22 -8 24 -17 30 -88 16 -203 87
-453 186 -657 266 -546 762 -934 1358 -1062 62 -13 151 -27 198 -30 47 -4 87
-10 89 -13 2 -3 7 -23 11 -44 l7 -37 -47 0 c-69 0 -245 27 -356 56 -495 124
-933 437 -1211 864 -181 276 -299 613 -326 928 -8 91 -8 92 14 92 13 0 34 -4
47 -9z m4017 -32 c0 -69 -29 -247 -60 -365 -206 -798 -871 -1398 -1682 -1518
-58 -9 -126 -16 -152 -16 -50 0 -56 11 -37 63 8 22 17 24 89 30 452 35 953
295 1274 662 259 296 441 713 474 1086 7 86 15 97 72 98 19 1 22 -4 22 -40z
m-3858 -1 c57 -11 104 -22 105 -22 0 -1 11 -57 22 -125 52 -307 193 -601 404
-842 245 -280 595 -482 953 -548 60 -11 122 -22 138 -23 29 -3 30 -5 52 -108
31 -145 35 -134 -43 -125 -227 24 -466 92 -667 190 -208 101 -370 220 -536
391 -219 226 -361 458 -459 753 -54 162 -109 481 -83 481 6 0 58 -10 114 -22z
m3753 -35 c-29 -258 -92 -479 -195 -683 -299 -595 -853 -985 -1518 -1070 -51
-7 -96 -9 -99 -6 -3 3 5 56 18 118 l24 112 88 13 c346 50 673 212 931 463 279
271 457 612 509 977 l13 88 99 22 c146 31 138 33 130 -34z m-3991 15 c10 -54
26 -211 22 -215 -7 -7 -157 -35 -162 -30 -6 5 -34 196 -34 229 0 33 8 36 97
37 68 1 73 -1 77 -21z m4275 13 c12 -8 12 -26 -2 -131 -9 -68 -18 -125 -21
-127 -4 -5 -155 22 -162 29 -2 3 1 57 8 122 l12 116 76 0 c41 0 81 -4 89 -9z
m-3425 -121 c237 -50 431 -92 433 -94 2 -1 -53 -144 -122 -317 -69 -173 -125
-320 -125 -326 0 -7 4 -13 9 -13 5 0 146 58 314 130 168 71 311 131 318 132
10 2 39 -121 110 -457 53 -253 95 -462 93 -464 -10 -11 -233 35 -342 71 -585
189 -1026 684 -1142 1283 -27 141 -26 157 3 150 12 -3 215 -46 451 -95z m2886
86 c0 -7 -7 -53 -15 -102 -96 -558 -473 -1035 -1001 -1267 -108 -47 -260 -92
-384 -112 -55 -10 -103 -16 -105 -13 -4 4 181 897 188 904 2 2 146 -52 320
-121 174 -69 321 -125 327 -125 5 0 10 4 10 9 0 4 -61 151 -135 326 -74 175
-134 319 -133 320 3 2 906 192 921 194 4 1 7 -5 7 -13z m-2284 -212 c71 -14
135 -29 141 -33 8 -4 -79 -98 -242 -261 -140 -140 -256 -252 -258 -250 -6 6
216 570 224 570 3 0 64 -12 135 -26z m-1392 -117 c16 -60 24 -112 20 -117 -18
-15 -146 -52 -154 -44 -10 11 -60 204 -60 232 0 17 12 22 78 34 42 8 80 12 83
9 3 -3 18 -55 33 -114z m4114 103 l74 -14 -7 -43 c-7 -45 -50 -201 -58 -209
-2 -2 -40 7 -84 21 l-80 25 31 120 c17 66 36 118 41 116 6 -2 43 -9 83 -16z
m-1178 -553 c-4 -3 -558 211 -569 220 -4 3 44 251 55 283 3 9 92 -73 262 -243
141 -141 254 -258 252 -260z m1179 267 c11 -9 -85 -244 -101 -244 -23 0 -149
72 -145 83 12 28 74 183 80 199 5 16 13 15 84 -9 43 -14 80 -27 82 -29z
m-4034 -67 l44 -108 -74 -36 c-41 -19 -78 -32 -84 -29 -11 7 -91 209 -91 230
0 13 123 57 148 53 8 -1 34 -51 57 -110z m107 -224 c29 -54 54 -102 55 -108 2
-5 -29 -29 -68 -53 -83 -50 -71 -58 -149 91 l-51 97 73 35 c40 19 76 35 79 35
4 0 31 -44 61 -97z m3771 55 l58 -29 -48 -90 c-26 -49 -57 -101 -68 -114 l-20
-25 -71 45 -72 45 43 78 c24 42 51 90 59 105 18 33 27 32 119 -15z m-3582
-344 c10 -11 19 -24 18 -30 -1 -16 -119 -106 -132 -101 -16 6 -142 183 -142
199 0 6 31 31 69 54 l69 43 49 -72 c28 -40 58 -81 69 -93z m3436 113 c73 -45
75 -34 -24 -170 -73 -99 -55 -97 -155 -13 l-47 39 43 56 c24 31 55 75 71 98
16 25 32 40 39 36 6 -4 39 -24 73 -46z m-3239 -336 c1 -4 -25 -33 -58 -66
l-60 -59 -41 39 c-22 22 -63 65 -90 97 l-50 56 67 57 67 56 81 -87 c44 -48 82
-90 84 -93z m3106 96 l30 -24 -21 -29 c-12 -16 -53 -60 -91 -97 l-69 -69 -54
57 c-30 32 -54 61 -54 65 0 5 35 47 78 94 l79 86 36 -29 c21 -17 50 -41 66
-54z m-2984 -196 c41 -35 75 -65 74 -68 -1 -14 -90 -133 -99 -132 -12 0 -189
147 -194 161 -2 5 23 36 55 69 50 50 60 57 73 45 9 -7 50 -41 91 -75z m2764
29 c32 -33 54 -65 51 -70 -12 -20 -187 -161 -195 -158 -5 2 -29 32 -55 67 -35
47 -44 66 -35 75 26 26 166 145 171 145 3 1 32 -26 63 -59z m-2496 -214 l33
-17 -38 -70 c-21 -39 -43 -73 -49 -76 -7 -2 -52 20 -100 51 -140 86 -132 70
-73 153 l51 71 72 -47 c39 -27 86 -56 104 -65z m2326 -34 c-12 -19 -195 -133
-207 -129 -5 1 -27 35 -49 74 l-39 71 78 48 c43 26 89 56 102 66 l23 18 51
-67 c36 -48 47 -70 41 -81z m-2066 -97 c1 -1 -11 -38 -28 -83 l-31 -80 -37 15
c-37 15 -194 93 -201 99 -1 1 15 36 38 78 l42 74 107 -50 c59 -28 108 -51 110
-53z m1799 33 c22 -40 38 -77 35 -82 -6 -11 -208 -106 -225 -106 -13 0 -74
146 -65 155 6 6 201 103 209 104 3 1 23 -32 46 -71z m-1662 -79 c50 -16 95
-31 102 -34 16 -5 -25 -165 -43 -165 -16 0 -202 58 -226 71 -15 8 -13 17 15
89 24 60 36 79 47 74 8 -3 56 -19 105 -35z m1417 -34 c15 -37 28 -73 28 -79 0
-11 -209 -86 -237 -86 -7 0 -17 18 -23 40 -5 22 -15 58 -21 81 -6 23 -9 42 -7
43 10 7 215 72 222 71 6 -1 23 -32 38 -70z m-1150 -31 l98 -17 -1 -31 c-1 -44
-14 -135 -21 -141 -5 -6 -246 39 -253 47 -2 2 6 41 17 87 19 74 23 82 41 77
12 -3 65 -13 119 -22z m894 -58 l21 -85 -71 -15 c-120 -26 -181 -35 -188 -28
-3 4 -10 43 -13 87 l-7 81 103 20 c57 12 111 22 119 22 12 2 21 -20 36 -82z
m-670 28 l51 -6 17 -75 c9 -40 16 -78 16 -83 0 -11 -151 -14 -189 -3 -22 6
-23 8 -16 72 11 111 7 108 121 95z m398 -21 c3 -16 8 -53 12 -84 6 -53 5 -57
-18 -62 -12 -4 -60 -7 -105 -7 -95 0 -91 -6 -67 100 17 77 14 75 126 78 43 2
47 0 52 -25z"/>
<path d="M2056 4324 c-32 -31 -8 -84 38 -84 45 0 63 52 28 83 -23 21 -46 22
-66 1z"/>
<path d="M1660 4180 c-22 -40 17 -89 60 -75 24 7 37 51 23 74 -16 26 -69 26
-83 1z"/>
<path d="M1337 3982 c-21 -4 -39 -45 -31 -67 18 -47 94 -36 94 12 0 44 -23 64
-63 55z"/>
<path d="M1026 3675 c-26 -27 -17 -61 21 -76 40 -15 65 5 61 49 -3 33 -6 37
-34 40 -19 2 -38 -3 -48 -13z"/>
<path d="M823 3339 c-26 -9 -32 -56 -11 -77 19 -19 55 -14 72 9 28 41 -12 86
-61 68z"/>
<path d="M677 2942 c-46 -51 19 -115 67 -66 30 30 9 84 -33 84 -10 0 -25 -8
-34 -18z"/>
<path d="M2878 4329 c-21 -12 -24 -59 -6 -77 18 -18 53 -15 71 6 22 24 21 45
-1 65 -21 19 -39 21 -64 6z"/>
<path d="M3255 4176 c-13 -19 -14 -29 -6 -45 25 -45 91 -33 91 17 0 54 -56 72
-85 28z"/>
<path d="M3623 3979 c-58 -22 -22 -113 37 -94 21 7 36 45 27 69 -9 22 -40 35
-64 25z"/>
<path d="M3900 3680 c-11 -11 -20 -27 -20 -35 0 -16 34 -55 48 -55 20 0 52 34
52 55 0 21 -32 55 -52 55 -5 0 -17 -9 -28 -20z"/>
<path d="M4120 3330 c-23 -23 -24 -33 -10 -61 12 -22 59 -26 78 -7 17 17 15
54 -4 72 -21 21 -40 20 -64 -4z"/>
<path d="M4252 2948 c-7 -7 -12 -24 -12 -38 0 -34 17 -50 52 -50 20 0 32 7 40
25 22 48 -43 100 -80 63z"/>
<path d="M672 2128 c-33 -33 6 -96 52 -84 29 7 45 49 29 75 -13 20 -64 26 -81
9z"/>
<path d="M812 1738 c-20 -20 -14 -66 9 -79 27 -14 65 1 74 31 13 42 -51 80
-83 48z"/>
<path d="M1044 1400 c-30 -11 -37 -39 -19 -66 30 -46 90 -23 83 32 -3 31 -32
45 -64 34z"/>
<path d="M1332 1109 c-35 -13 -28 -84 8 -89 32 -5 47 1 57 23 21 46 -16 84
-65 66z"/>
<path d="M1670 880 c-23 -23 -24 -33 -10 -61 12 -22 59 -26 78 -7 17 17 15 54
-4 72 -21 21 -40 20 -64 -4z"/>
<path d="M2050 741 c-15 -28 -12 -46 8 -64 24 -22 45 -21 65 1 20 22 22 53 5
70 -19 19 -66 15 -78 -7z"/>
<path d="M4252 2128 c-28 -28 -2 -88 38 -88 19 0 50 35 50 57 0 34 -62 57 -88
31z"/>
<path d="M4133 1749 c-39 -14 -40 -69 -1 -90 40 -21 87 38 60 77 -11 17 -35
22 -59 13z"/>
<path d="M3913 1399 c-43 -16 -40 -74 5 -86 36 -9 57 8 57 47 0 37 -25 53 -62
39z"/>
<path d="M3610 1100 c-23 -23 -24 -33 -10 -61 12 -22 59 -26 78 -7 19 19 14
55 -10 72 -29 20 -34 20 -58 -4z"/>
<path d="M3268 888 c-40 -33 -19 -88 33 -88 22 0 32 6 39 26 19 50 -31 94 -72
62z"/>
<path d="M2871 746 c-21 -25 -9 -69 21 -80 50 -17 89 42 52 78 -19 20 -58 21
-73 2z"/>
</g>
</svg>
